PathFileType	4	(X/Y/Z)	P:\Projects\LMB_grand_challenge_database\project_only\opensim\experimental_data\SixthCompetition/DM_ngait_og1_new.trc
DataRate	CameraRate	NumFrames	NumMarkers	Units	OrigDataRate	OrigDataStartFrame	OrigNumFrames
120	120	8	68	mm	120	95	381
Frame#	Time	Sternum			Neck			R_Shoulder			L_Shoulder			Xiphoid			Thoracic			R_Asis			L_Asis			R_Psis			L_Psis			Lumbar			R_Elbow			R_ElbowMedial			R_ShoulderAnterior			R_ShoulderPosterior			R_Wrist			R_Radius			R_Ulna			L_Elbow			L_ElbowMedial			L_ShoulderAnterior			L_ShoulderPosterior			L_Wrist			L_Ulna			L_Radius			L_Thigh_Superior			L_Thigh_Inferior			L_Thigh_Lateral			L_Knee_Lateral			L_Knee_Medial			L_Patella			L_Shank_Superior			L_Shank_Inferior			L_Shank_Lateral			L_Ankle_Lateral			L_Ankle_Medial			R_Thigh_Superior			R_Thigh_Inferior			R_Thigh_Lateral			R_Knee_Lateral			R_Knee_Medial			R_Patella			R_Shank_Superior			R_Shank_Inferior			R_Shank_Lateral			R_Ankle_Lateral			RankleMedial			R_Heel			R_Toe			R_Midfoot_Medial			R_Midfoot_Lateral			R_Hindfoot			R_Midfoot_Superior			R_ToeMedial			R_ToeLateral			L_Heel			L_Toe			L_Midfoot_Medial			L_Midfoot_Lateral			L_Hindfoot			L_Midfoot_Superior			L_ToeMedial			L_ToeLateral			Oglobal			Sacral			Xglobal			Yglobal			Zglobal			
		X1	Y1	Z1	X2	Y2	Z2	X3	Y3	Z3	X4	Y4	Z4	X5	Y5	Z5	X6	Y6	Z6	X7	Y7	Z7	X8	Y8	Z8	X9	Y9	Z9	X10	Y10	Z10	X11	Y11	Z11	X12	Y12	Z12	X13	Y13	Z13	X14	Y14	Z14	X15	Y15	Z15	X16	Y16	Z16	X17	Y17	Z17	X18	Y18	Z18	X19	Y19	Z19	X20	Y20	Z20	X21	Y21	Z21	X22	Y22	Z22	X23	Y23	Z23	X24	Y24	Z24	X25	Y25	Z25	X26	Y26	Z26	X27	Y27	Z27	X28	Y28	Z28	X29	Y29	Z29	X30	Y30	Z30	X31	Y31	Z31	X32	Y32	Z32	X33	Y33	Z33	X34	Y34	Z34	X35	Y35	Z35	X36	Y36	Z36	X37	Y37	Z37	X38	Y38	Z38	X39	Y39	Z39	X40	Y40	Z40	X41	Y41	Z41	X42	Y42	Z42	X43	Y43	Z43	X44	Y44	Z44	X45	Y45	Z45	X46	Y46	Z46	X47	Y47	Z47	X48	Y48	Z48	X49	Y49	Z49	X50	Y50	Z50	X51	Y51	Z51	X52	Y52	Z52	X53	Y53	Z53	X54	Y54	Z54	X55	Y55	Z55	X56	Y56	Z56	X57	Y57	Z57	X58	Y58	Z58	X59	Y59	Z59	X60	Y60	Z60	X61	Y61	Z61	X62	Y62	Z62	X63	Y63	Z63	X64	Y64	Z64	X65	Y65	Z65	X66	Y66	Z66	X67	Y67	Z67	X68	Y68	Z68	

96	1.541667	-698.8869999999999	1384.94	210.611	-862.657	1461.9	227.014	-755.52	1398.38	388.037	-802.34	1433.81	43.2903	-678.53	1217.49	206.207	-949.3869999999999	1271.65	212.476	-758.014	992.535	342.981	-749.673	983.12	65.0145	-957.766	1023.77	228.484	-956.022	1022.44	150.224	-956.316	1072.86	189.176	-760.308	1082.24	484.21	-0	0	0	-0	0	0	-0	0	0	-664.8680000000001	817.401	444.693	-677.303	833.726	401.929	-708.441	823.317	466.082	-811.077	1096.75	-60.6971	-0	0	0	-0	0	0	-0	0	0	-726.193	841.139	-47.3791	-769.843	847.862	-69.6199	-736.292	856.034	-2.73725	-779.47	813.342	29.7103	-694.294	604.672	48.4348	-671.175	703.073	77.4485	-0	0	0	-0	0	0	-647.478	499.414	96.9777	-755.121	470.454	42.97	-952.927	289.743	53.5107	-829.139	347.821	115.179	-0	0	0	-0	0	0	-833.343	800.5410000000001	359.848	-810.256	587.02	315.882	-745.6130000000001	715.08	339.624	-0	0	0	-0	0	0	-730.343	501.031	243.631	-860.727	396.383	322.613	-888.952	191.345	304.404	-806.325	306.848	238.36	-0	0	0	-0	0	0	-987.9690000000001	63.8135	244.474	-688.457	51.4167	272.07	-763.136	27.9361	213.186	-784.206	27.4983	328.547	-892.939	28.6608	306.091	-824.069	117.726	261.433	-718.043	39.5541	226.491	-733.49	39.3284	316.721	-1083.74	250.756	114.624	-872.569	41.3187	90.5189	-936.782	82.60080000000001	150.594	-957.0940000000001	89.0538	38.1131	-1038.35	156.96	53.7656	-923.601	181.603	94.10469999999999	-909.026	53.1961	136.281	-914.745	55.2172	41.8827	-0	0	0	-956.894	1023.11	189.354	-200	0	0	-0	0	200	-0	200	0	
97	1.55	-690.732	1385.15	210.202	-854.136	1462.63	227.878	-746.112	1399.4	388.191	-795.4640000000001	1434.19	43.6569	-670.825	1217.62	205.922	-941.604	1272.64	214.072	-750.271	992.5650000000001	343.228	-743.164	983.6799999999999	65.066	-950.372	1024.83	229.628	-948.963	1023.58	151.335	-948.924	1073.96	190.374	-750.139	1083.34	484.868	-0	0	0	-0	0	0	-0	0	0	-653.485	818.957	443.541	-666.777	835.412	401.18	-696.9160000000001	824.724	465.839	-808.972	1097.47	-60.523	-0	0	0	-0	0	0	-0	0	0	-726.937	840.808	-49.8598	-770.73	848.466	-70.88420000000001	-736.163	855.596	-5.02029	-771.5650000000001	814.985	29.8164	-682.443	607.673	48.2127	-660.856	706.571	77.705	-0	0	0	-0	0	0	-633.48	503.588	96.8382	-739.774	471.287	43.2439	-932.514	284.844	53.9497	-810.566	346.361	116.55	-0	0	0	-0	0	0	-827.389	801.0549999999999	360.5	-807.347	587.3390000000001	316.019	-740.731	714.621	339.389	-0	0	0	-0	0	0	-728.654	500.706	243.616	-859.425	396.606	322.803	-888.5309999999999	191.595	304.486	-805.39	306.841	238.557	-0	0	0	-0	0	0	-987.878	64.0527	244.455	-688.098	50.8202	271.423	-763.095	27.823	213.208	-784.1900000000001	27.399	328.565	-892.889	28.66	306.157	-823.91	117.697	261.456	-717.982	39.5236	226.494	-733.498	39.262	316.754	-1063.38	241.193	113.961	-841.422	41.8229	94.6705	-909.224	80.5372	153.861	-928.707	84.35809999999999	41.1137	-1013.6	148.236	54.5741	-899.6369999999999	179.026	95.9254	-879.7859999999999	52.0883	139.363	-884.272	53.0641	45.086	-0	0	0	-949.667	1024.2	190.481	-200	0	0	-0	0	200	-0	200	0	
98	1.558333	-682.647	1385.35	209.962	-845.529	1463.38	228.596	-736.7569999999999	1400.12	388.132	-788.53	1434.62	44.0129	-663.139	1217.76	205.619	-933.564	1273.58	215.456	-742.505	992.965	343.429	-736.643	984.068	64.9804	-942.965	1025.86	230.655	-941.833	1024.72	152.338	-941.543	1075.05	191.323	-739.593	1084.22	484.847	-0	0	0	-0	0	0	-0	0	0	-642.706	820.473	442.947	-656.25	836.985	400.427	-685.802	826.107	465.788	-806.756	1098.13	-60.4652	-0	0	0	-0	0	0	-0	0	0	-727.826	840.683	-52.4065	-771.838	848.737	-72.2504	-735.545	855.366	-7.23553	-763.542	816.388	29.5439	-671.204	610.763	48.1597	-650.98	710.102	78.0154	-0	0	0	-0	0	0	-620.306	507.89	96.98609999999999	-724.992	472.073	43.7003	-912.022	279.723	54.282	-791.636	346.127	117.559	-0	0	0	-0	0	0	-820.4930000000001	801.424	359.087	-804.5	587.755	316.057	-735.913	714.228	338.973	-0	0	0	-0	0	0	-726.627	500.184	243.971	-857.998	396.737	322.787	-888.077	191.897	304.613	-804.453	307.022	238.667	-0	0	0	-0	0	0	-987.683	64.2923	244.481	-688.015	50.7096	271.399	-762.938	27.779	213.294	-784.0549999999999	27.4388	328.647	-892.869	28.7428	306.234	-823.634	117.757	261.487	-718.4160000000001	39.4268	226.687	-733.47	39.1661	316.788	-1041.83	230.653	112.972	-810.037	42.3176	98.0296	-880.914	77.63500000000001	156.105	-899.082	79.7129	43.093	-984.753	139.255	54.9893	-875.069	176.005	97.5033	-849.961	50.7789	142.017	-853.072	50.6856	47.5366	-0	0	0	-942.399	1025.29	191.496	-200	0	0	-0	0	200	-0	200	0	
99	1.566667	-674.547	1385.58	209.621	-836.84	1464.21	229.186	-727.45	1401.05	388.122	-781.259	1435.06	44.2656	-655.405	1218.03	205.324	-925.4450000000001	1274.47	216.842	-734.592	992.869	343.219	-730.231	984.711	64.93980000000001	-935.544	1026.81	231.63	-934.864	1025.81	153.388	-934.14	1076.07	192.496	-729.429	1085.13	485.16	-0	0	0	-0	0	0	-0	0	0	-631.87	821.693	442.486	-646.058	838.231	400.242	-675.125	827.27	465.795	-804.4930000000001	1098.89	-60.1717	-0	0	0	-0	0	0	-0	0	0	-728.732	840.572	-54.7814	-773.05	849.146	-73.6019	-735.297	855.13	-9.605399999999999	-755.905	818.117	29.4107	-659.873	613.652	48.6544	-641.009	713.486	78.4295	-0	0	0	-0	0	0	-607.787	512.478	96.8544	-710.471	472.762	44.1287	-890.759	274.06	54.3299	-773.351	345.178	117.963	-0	0	0	-0	0	0	-813.475	801.301	358.132	-801.807	587.9589999999999	316.382	-731.926	714.003	339.379	-0	0	0	-0	0	0	-724.543	499.519	244.134	-856.71	397.038	322.982	-887.6319999999999	192.181	304.662	-803.806	307.103	238.787	-0	0	0	-0	0	0	-987.379	64.7441	244.379	-687.965	50.5807	271.284	-762.673	27.7921	213.43	-783.918	27.4608	328.76	-892.907	28.8813	306.237	-823.2140000000001	117.886	261.585	-718.319	38.9904	226.815	-733.421	39.1172	316.777	-1019.49	219.756	112.122	-778.071	42.363	100.649	-852.246	74.3961	157.599	-869.283	75.2111	44.3946	-957.668	130.713	55.0528	-850.181	172.683	98.6314	-819.518	48.9736	143.857	-821.891	48.2339	49.4866	-0	0	0	-935.204	1026.31	192.509	-200	0	0	-0	0	200	-0	200	0	
100	1.575	-666.26	1385.66	209.299	-828.163	1464.82	229.781	-717.919	1401.69	388.054	-774.313	1435.44	44.3925	-647.806	1217.99	205.004	-917.484	1275.35	218.177	-727.056	993.265	343.464	-723.716	985.149	64.7884	-928.254	1027.81	232.514	-927.765	1026.88	154.285	-926.884	1077.11	193.288	-719.355	1085.99	485.419	-0	0	0	-0	0	0	-0	0	0	-621.1130000000001	822.745	441.986	-635.673	839.331	399.852	-664.3049999999999	828.224	465.184	-801.9930000000001	1099.66	-59.8204	-0	0	0	-0	0	0	-0	0	0	-729.649	840.433	-57.1221	-774.151	849.6420000000001	-74.7599	-735.076	854.996	-11.347	-748.366	819.783	29.0715	-649.307	616.323	48.8823	-631.3390000000001	716.465	78.5992	-0	0	0	-0	0	0	-595.599	517.086	97.24550000000001	-696.174	473.883	44.4678	-868.4400000000001	267.516	53.8776	-754.968	344.326	118.343	-0	0	0	-0	0	0	-806.951	801.453	357.268	-799.453	588.427	317.088	-727.645	713.745	339.491	-0	0	0	-0	0	0	-723.158	499.374	244.039	-855.556	397.242	323.163	-887.0599999999999	192.57	304.801	-802.936	306.821	238.652	-0	0	0	-0	0	0	-987.206	65.1203	244.327	-687.938	50.5277	271.423	-762.551	27.7887	213.467	-783.86	27.3909	328.785	-892.841	28.9955	306.228	-822.924	117.958	261.675	-717.944	39.7175	227.715	-733.337	39.0469	316.795	-996.249	208.567	111.721	-746.264	42.58	102.354	-823.063	71.1186	159.492	-839.59	69.9706	46.2156	-929.749	121.451	55.7816	-824.8920000000001	168.737	99.45140000000001	-788.702	47.3475	145.445	-790.599	45.875	50.8186	-0	0	0	-928.009	1027.34	193.4	-200	0	0	-0	0	200	-0	200	0	
101	1.583333	-658.116	1385.77	208.978	-819.4059999999999	1465.49	230.31	-708.451	1402.34	387.896	-767.038	1435.67	44.5593	-639.919	1218.06	204.721	-909.389	1276.23	219.353	-719.335	993.592	343.524	-717.198	985.342	64.7364	-920.862	1028.76	233.38	-920.6319999999999	1027.93	155.212	-919.481	1078.11	194.102	-709.353	1086.71	485.593	-0	0	0	-0	0	0	-0	0	0	-610.775	823.763	441.514	-625.472	840.5839999999999	399.563	-653.802	829.044	464.841	-799.319	1100.34	-59.3202	-0	0	0	-0	0	0	-0	0	0	-730.48	840.433	-59.3266	-775.066	850.1319999999999	-75.8231	-734.294	854.9109999999999	-13.6042	-741.148	821.239	28.7678	-639.242	618.823	49.1902	-622.312	719.013	79.07599999999999	-0	0	0	-0	0	0	-583.881	520.937	97.8766	-682.386	474.896	45.1008	-847.711	262.053	54.3745	-736.526	342.901	118.923	-0	0	0	-0	0	0	-801.047	802.001	357.425	-796.837	588.788	317.617	-723.3099999999999	713.414	339.504	-0	0	0	-0	0	0	-722.3150000000001	498.966	244.131	-854.2910000000001	397.55	323.441	-886.522	192.987	304.97	-802.097	307.055	238.649	-0	0	0	-0	0	0	-987.079	65.5048	244.413	-687.819	50.3707	271.426	-762.49	27.8498	213.459	-783.782	27.3044	328.779	-892.765	29.0801	306.277	-822.674	118.053	261.822	-718.328	38.9365	226.916	-733.242	39.2002	317.05	-971.4450000000001	196.245	111.776	-715.636	42.763	103.468	-791.941	66.86020000000001	158.74	-808.297	65.7701	45.4376	-901.966	112.888	55.2532	-799.2569999999999	164.887	99.4846	-757.148	44.8809	147.166	-758.855	43.4889	51.3412	-0	0	0	-920.747	1028.34	194.296	-200	0	0	-0	0	200	-0	200	0	
102	1.591667	-649.832	1385.61	208.583	-810.532	1466.12	230.73	-699.077	1402.75	387.756	-759.573	1435.91	44.7213	-632.3	1218.13	204.218	-901.34	1276.96	220.659	-711.665	993.725	343.578	-710.6559999999999	985.754	64.47969999999999	-913.473	1029.63	234.2	-913.5	1028.93	155.997	-912.121	1079.06	194.889	-699.172	1087.36	485.558	-0	0	0	-0	0	0	-0	0	0	-600.6130000000001	824.622	441.2	-615.516	841.417	399.203	-643.667	829.768	464.566	-796.741	1101.09	-58.8422	-0	0	0	-0	0	0	-0	0	0	-731.046	840.312	-61.599	-775.9109999999999	850.705	-76.8107	-733.232	854.984	-15.8636	-734.174	822.606	28.4156	-629.114	621.727	50.3549	-613.241	721.537	79.5782	-0	0	0	-0	0	0	-573.228	524.8150000000001	98.4975	-669.22	475.671	45.7891	-824.996	255.561	53.9308	-717.726	342.009	119.878	-0	0	0	-0	0	0	-795.225	802.4640000000001	357.69	-794.052	589.177	317.938	-718.8680000000001	712.9400000000001	339.48	-0	0	0	-0	0	0	-720.77	498.199	244.409	-853.171	397.997	323.775	-886.032	193.416	305.126	-800.991	307.405	238.804	-0	0	0	-0	0	0	-986.933	65.90089999999999	244.51	-687.748	50.1526	271.437	-762.377	27.7078	213.983	-783.83	27.5493	329.275	-892.898	29.3945	306.635	-822.441	118.177	261.993	-718.432	38.7833	226.846	-733.125	39.0933	317.082	-946.229	184.045	111.819	-683.0309999999999	42.6102	102.445	-760.946	62.5539	157.4	-777.274	61.9424	44.0902	-874.175	104.969	54.6542	-773.202	160.833	99.24209999999999	-725.0599999999999	43.5576	146.978	-727.169	41.5541	51.2381	-0	0	0	-913.486	1029.28	195.099	-200	0	0	-0	0	200	-0	200	0	
103	1.6	-641.4349999999999	1385.73	208.141	-801.644	1466.61	231.131	-689.726	1403.17	387.545	-752.192	1436.14	44.7246	-624.485	1218.03	203.845	-893.204	1277.82	221.669	-703.912	993.5549999999999	343.398	-704.106	986.232	64.2825	-906.0119999999999	1030.5	234.906	-906.379	1029.91	156.819	-904.669	1079.98	195.754	-689.2	1087.8	485.431	-0	0	0	-0	0	0	-0	0	0	-590.1130000000001	825.37	440.63	-605.713	842.293	397.94	-633.362	830.241	464.19	-793.788	1101.74	-58.515	-0	0	0	-0	0	0	-0	0	0	-731.595	840.312	-63.5428	-776.546	851.251	-77.7585	-732.2140000000001	854.832	-17.5795	-727.449	823.795	28.0527	-619.833	624.289	51.8654	-605.8099999999999	723.485	80.0654	-0	0	0	-0	0	0	-562.7089999999999	528.573	99.23269999999999	-656.496	476.422	46.3823	-802.84	249.178	53.8628	-699.3150000000001	340.13	120.11	-0	0	0	-0	0	0	-789.683	803.167	357.903	-790.857	589.5359999999999	317.91	-714.818	712.423	339.768	-0	0	0	-0	0	0	-719.0410000000001	498.066	244.605	-851.739	398.373	323.998	-885.475	193.855	305.355	-800.0940000000001	307.722	239.112	-0	0	0	-0	0	0	-986.7380000000001	66.4417	244.621	-687.5700000000001	49.9821	271.413	-762.303	27.9872	213.53	-783.578	27.2292	328.853	-892.6900000000001	29.4154	306.385	-822.151	118.293	262.133	-718.3	38.7201	226.924	-733.0599999999999	38.9777	317.102	-920.4829999999999	171.897	111.991	-651.032	43.1429	102.012	-729.577	58.871	156.12	-746.078	58.5749	42.8342	-845.388	97.0675	54.1141	-746.58	157.014	98.934	-692.8440000000001	42.0993	146.206	-694.931	39.9274	50.6174	-0	0	0	-906.196	1030.21	195.863	-200	0	0	-0	0	200	-0	200	0	
